<mxfile modified="2019-11-26T06:49:50.976Z" host="www.draw.io" agent="Mozilla/5.0 (Windows NT 10.0; Win64; x64) AppleWebKit/537.36 (KHTML, like Gecko) Chrome/78.0.3904.108 Safari/537.36" etag="a-1zEB0_F4aZjoWlINg1" version="12.3.0" type="github" pages="1">
  <diagram id="WmeTKDI0ov2D66W9k7iv" name="第 1 页">
    <mxGraphModel dx="1038" dy="499" grid="1" gridSize="10" guides="1" tooltips="1" connect="1" arrows="1" fold="1" page="1" pageScale="1" pageWidth="1654" pageHeight="2336" math="0" shadow="0">
      <root>
        <mxCell id="0"/>
        <mxCell id="1" parent="0"/>
        <mxCell id="2YWFpv4NdZ1Yad-ay4ea-1" value="" style="rounded=1;whiteSpace=wrap;html=1;fillColor=#e6d0de;strokeColor=#996185;gradientDirection=north;gradientColor=#d5739d;" parent="1" vertex="1">
          <mxGeometry x="14" y="560.5" width="712" height="70" as="geometry"/>
        </mxCell>
        <mxCell id="2YWFpv4NdZ1Yad-ay4ea-2" value="" style="rounded=1;whiteSpace=wrap;html=1;fillColor=#ffcd28;strokeColor=#d79b00;gradientDirection=north;gradientColor=#ffffff;" parent="1" vertex="1">
          <mxGeometry x="15" y="390.5" width="712" height="120" as="geometry"/>
        </mxCell>
        <mxCell id="2YWFpv4NdZ1Yad-ay4ea-3" value="" style="rounded=1;whiteSpace=wrap;html=1;fillColor=#1ba1e2;strokeColor=#1ba1e2;gradientDirection=north;fontColor=#ffffff;gradientColor=#ffffff;" parent="1" vertex="1">
          <mxGeometry x="15" y="20" width="711" height="331" as="geometry"/>
        </mxCell>
        <mxCell id="2YWFpv4NdZ1Yad-ay4ea-4" value="" style="endArrow=none;dashed=1;html=1;shadow=0;rounded=1;comic=0;align=center;verticalAlign=bottom;horizontal=1;jumpStyle=sharp;" parent="1" edge="1">
          <mxGeometry width="50" height="50" relative="1" as="geometry">
            <mxPoint x="810" as="sourcePoint"/>
            <mxPoint as="targetPoint"/>
            <Array as="points"/>
          </mxGeometry>
        </mxCell>
        <mxCell id="2YWFpv4NdZ1Yad-ay4ea-5" value="" style="endArrow=none;dashed=1;html=1;shadow=0;rounded=1;comic=0;align=center;verticalAlign=bottom;horizontal=1;jumpStyle=sharp;" parent="1" edge="1">
          <mxGeometry width="50" height="50" relative="1" as="geometry">
            <mxPoint x="825" y="380.5" as="sourcePoint"/>
            <mxPoint x="5" y="380.5" as="targetPoint"/>
            <Array as="points"/>
          </mxGeometry>
        </mxCell>
        <mxCell id="2YWFpv4NdZ1Yad-ay4ea-6" value="" style="endArrow=none;dashed=1;html=1;shadow=0;rounded=1;comic=0;align=center;verticalAlign=bottom;horizontal=1;jumpStyle=sharp;" parent="1" edge="1">
          <mxGeometry width="50" height="50" relative="1" as="geometry">
            <mxPoint x="825" y="540.5" as="sourcePoint"/>
            <mxPoint x="5" y="540.5" as="targetPoint"/>
          </mxGeometry>
        </mxCell>
        <mxCell id="2YWFpv4NdZ1Yad-ay4ea-7" value="" style="endArrow=none;dashed=1;html=1;shadow=1;align=center;" parent="1" edge="1">
          <mxGeometry width="50" height="50" relative="1" as="geometry">
            <mxPoint x="5" y="650.5" as="sourcePoint"/>
            <mxPoint x="835" y="650.5" as="targetPoint"/>
          </mxGeometry>
        </mxCell>
        <mxCell id="2YWFpv4NdZ1Yad-ay4ea-8" value="RS232" style="rounded=0;whiteSpace=wrap;html=1;fillColor=#ffcccc;strokeColor=#36393d;" parent="1" vertex="1">
          <mxGeometry x="35" y="585.5" width="70" height="30" as="geometry"/>
        </mxCell>
        <mxCell id="2YWFpv4NdZ1Yad-ay4ea-9" value="RS485" style="rounded=0;whiteSpace=wrap;html=1;fillColor=#ffcccc;strokeColor=#36393d;" parent="1" vertex="1">
          <mxGeometry x="135" y="585.5" width="70" height="30" as="geometry"/>
        </mxCell>
        <mxCell id="2YWFpv4NdZ1Yad-ay4ea-10" value="LED" style="rounded=0;whiteSpace=wrap;html=1;fillColor=#ffcccc;strokeColor=#36393d;" parent="1" vertex="1">
          <mxGeometry x="225" y="585.5" width="70" height="30" as="geometry"/>
        </mxCell>
        <mxCell id="2YWFpv4NdZ1Yad-ay4ea-11" value="WIFI/BT" style="rounded=0;whiteSpace=wrap;html=1;fillColor=#ffcccc;strokeColor=#36393d;" parent="1" vertex="1">
          <mxGeometry x="325" y="585.5" width="70" height="30" as="geometry"/>
        </mxCell>
        <mxCell id="2YWFpv4NdZ1Yad-ay4ea-12" value="4G/GPS" style="rounded=0;whiteSpace=wrap;html=1;fillColor=#ffcccc;strokeColor=#36393d;" parent="1" vertex="1">
          <mxGeometry x="430" y="585.5" width="70" height="30" as="geometry"/>
        </mxCell>
        <mxCell id="2YWFpv4NdZ1Yad-ay4ea-13" value="Ethernet" style="rounded=0;whiteSpace=wrap;html=1;fillColor=#ffcccc;strokeColor=#36393d;" parent="1" vertex="1">
          <mxGeometry x="530" y="585.5" width="70" height="30" as="geometry"/>
        </mxCell>
        <mxCell id="2YWFpv4NdZ1Yad-ay4ea-14" value="Other" style="rounded=0;whiteSpace=wrap;html=1;fillColor=#ffcccc;strokeColor=#36393d;" parent="1" vertex="1">
          <mxGeometry x="640" y="585.5" width="70" height="30" as="geometry"/>
        </mxCell>
        <mxCell id="2YWFpv4NdZ1Yad-ay4ea-15" value="&lt;font style=&quot;font-size: 15px&quot;&gt;&lt;b&gt;Hardware&lt;/b&gt;&lt;/font&gt;" style="text;html=1;resizable=0;points=[];autosize=1;align=left;verticalAlign=top;spacingTop=-4;strokeWidth=3;" parent="1" vertex="1">
          <mxGeometry x="765" y="590.5" width="80" height="20" as="geometry"/>
        </mxCell>
        <mxCell id="2YWFpv4NdZ1Yad-ay4ea-16" value="&lt;font style=&quot;font-size: 10px&quot;&gt;RS232 Driver&lt;/font&gt;" style="rounded=0;whiteSpace=wrap;html=1;fillColor=#ffff88;strokeColor=#36393d;" parent="1" vertex="1">
          <mxGeometry x="35" y="465.5" width="70" height="30" as="geometry"/>
        </mxCell>
        <mxCell id="2YWFpv4NdZ1Yad-ay4ea-17" value="RS485 Driver" style="rounded=0;whiteSpace=wrap;html=1;fillColor=#ffff88;strokeColor=#36393d;" parent="1" vertex="1">
          <mxGeometry x="135" y="465.5" width="70" height="30" as="geometry"/>
        </mxCell>
        <mxCell id="2YWFpv4NdZ1Yad-ay4ea-18" value="LED Driver" style="rounded=0;whiteSpace=wrap;html=1;fillColor=#ffff88;strokeColor=#36393d;" parent="1" vertex="1">
          <mxGeometry x="225" y="465.5" width="70" height="30" as="geometry"/>
        </mxCell>
        <mxCell id="2YWFpv4NdZ1Yad-ay4ea-19" value="WIFI/BT Driver" style="rounded=0;whiteSpace=wrap;html=1;fillColor=#ffff88;strokeColor=#36393d;" parent="1" vertex="1">
          <mxGeometry x="325" y="465.5" width="70" height="30" as="geometry"/>
        </mxCell>
        <mxCell id="2YWFpv4NdZ1Yad-ay4ea-20" value="4G/GPS Driver" style="rounded=0;whiteSpace=wrap;html=1;fillColor=#ffff88;strokeColor=#36393d;" parent="1" vertex="1">
          <mxGeometry x="530" y="465.5" width="70" height="30" as="geometry"/>
        </mxCell>
        <mxCell id="2YWFpv4NdZ1Yad-ay4ea-21" value="Ethernet Driver" style="rounded=0;whiteSpace=wrap;html=1;fillColor=#ffff88;strokeColor=#36393d;" parent="1" vertex="1">
          <mxGeometry x="430" y="465.5" width="70" height="30" as="geometry"/>
        </mxCell>
        <mxCell id="2YWFpv4NdZ1Yad-ay4ea-22" value="Other Driver" style="rounded=0;whiteSpace=wrap;html=1;fillColor=#ffff88;strokeColor=#36393d;" parent="1" vertex="1">
          <mxGeometry x="635" y="465.5" width="70" height="30" as="geometry"/>
        </mxCell>
        <mxCell id="2YWFpv4NdZ1Yad-ay4ea-23" value="" style="rounded=1;whiteSpace=wrap;html=1;gradientColor=#7ea6e0;fillColor=#dae8fc;strokeColor=#6c8ebf;" parent="1" vertex="1">
          <mxGeometry x="315" y="400.5" width="320" height="50" as="geometry"/>
        </mxCell>
        <mxCell id="2YWFpv4NdZ1Yad-ay4ea-24" value="Bluetooth Protocol&amp;nbsp;" style="rounded=0;whiteSpace=wrap;html=1;fillColor=#cce5ff;strokeColor=#36393d;" parent="1" vertex="1">
          <mxGeometry x="325" y="410.5" width="90" height="31" as="geometry"/>
        </mxCell>
        <mxCell id="2YWFpv4NdZ1Yad-ay4ea-25" value="TCP/IP Protocol&amp;nbsp;" style="rounded=0;whiteSpace=wrap;html=1;fillColor=#cce5ff;strokeColor=#36393d;" parent="1" vertex="1">
          <mxGeometry x="425" y="410.5" width="90" height="31" as="geometry"/>
        </mxCell>
        <mxCell id="2YWFpv4NdZ1Yad-ay4ea-26" value="Other Protocol&amp;nbsp;" style="rounded=0;whiteSpace=wrap;html=1;fillColor=#cce5ff;strokeColor=#36393d;" parent="1" vertex="1">
          <mxGeometry x="530" y="410" width="90" height="31" as="geometry"/>
        </mxCell>
        <mxCell id="2YWFpv4NdZ1Yad-ay4ea-27" value="Dbus Library" style="rounded=1;whiteSpace=wrap;html=1;fillColor=#ffe6cc;strokeColor=#d79b00;" parent="1" vertex="1">
          <mxGeometry x="35" y="301" width="130" height="35" as="geometry"/>
        </mxCell>
        <mxCell id="2YWFpv4NdZ1Yad-ay4ea-28" value="MQTT Library" style="rounded=1;whiteSpace=wrap;html=1;fillColor=#ffe6cc;strokeColor=#d79b00;" parent="1" vertex="1">
          <mxGeometry x="175" y="301" width="120" height="35" as="geometry"/>
        </mxCell>
        <mxCell id="2YWFpv4NdZ1Yad-ay4ea-29" value="IEC61580 Library" style="rounded=1;whiteSpace=wrap;html=1;fillColor=#ffe6cc;strokeColor=#d79b00;" parent="1" vertex="1">
          <mxGeometry x="311" y="300.5" width="120" height="35" as="geometry"/>
        </mxCell>
        <mxCell id="2YWFpv4NdZ1Yad-ay4ea-30" value="Other Library" style="rounded=1;whiteSpace=wrap;html=1;fillColor=#ffe6cc;strokeColor=#d79b00;" parent="1" vertex="1">
          <mxGeometry x="587" y="300.5" width="115" height="35" as="geometry"/>
        </mxCell>
        <mxCell id="2YWFpv4NdZ1Yad-ay4ea-31" value="" style="rounded=1;whiteSpace=wrap;html=1;fillColor=#f8cecc;strokeColor=#b85450;" parent="1" vertex="1">
          <mxGeometry x="35" y="200.5" width="670" height="90" as="geometry"/>
        </mxCell>
        <mxCell id="2YWFpv4NdZ1Yad-ay4ea-32" value="" style="rounded=1;whiteSpace=wrap;html=1;fillColor=#d5e8d4;strokeColor=#82b366;gradientColor=#ffffff;" parent="1" vertex="1">
          <mxGeometry x="45" y="70.5" width="200" height="120" as="geometry"/>
        </mxCell>
        <mxCell id="2YWFpv4NdZ1Yad-ay4ea-33" value="" style="endArrow=classic;startArrow=classic;html=1;shadow=1;dashed=1;align=center;entryX=0.5;entryY=1;exitX=0.5;exitY=0;" parent="1" source="2YWFpv4NdZ1Yad-ay4ea-8" target="2YWFpv4NdZ1Yad-ay4ea-16" edge="1">
          <mxGeometry width="50" height="50" relative="1" as="geometry">
            <mxPoint x="45" y="570.5" as="sourcePoint"/>
            <mxPoint x="95" y="520.5" as="targetPoint"/>
          </mxGeometry>
        </mxCell>
        <mxCell id="2YWFpv4NdZ1Yad-ay4ea-34" value="" style="endArrow=classic;startArrow=classic;html=1;shadow=1;dashed=1;align=center;entryX=0.5;entryY=1;exitX=0.5;exitY=0;" parent="1" edge="1">
          <mxGeometry width="50" height="50" relative="1" as="geometry">
            <mxPoint x="169.33333333333337" y="585.3333333333334" as="sourcePoint"/>
            <mxPoint x="169.33333333333337" y="495.33333333333337" as="targetPoint"/>
          </mxGeometry>
        </mxCell>
        <mxCell id="2YWFpv4NdZ1Yad-ay4ea-35" value="" style="endArrow=classic;startArrow=classic;html=1;shadow=1;dashed=1;align=center;entryX=0.5;entryY=1;exitX=0.5;exitY=0;" parent="1" edge="1">
          <mxGeometry width="50" height="50" relative="1" as="geometry">
            <mxPoint x="259.83333333333337" y="585.3333333333334" as="sourcePoint"/>
            <mxPoint x="259.83333333333337" y="495.33333333333337" as="targetPoint"/>
          </mxGeometry>
        </mxCell>
        <mxCell id="2YWFpv4NdZ1Yad-ay4ea-36" value="" style="endArrow=classic;startArrow=classic;html=1;shadow=1;dashed=1;align=center;entryX=0.5;entryY=1;exitX=0.5;exitY=0;" parent="1" edge="1">
          <mxGeometry width="50" height="50" relative="1" as="geometry">
            <mxPoint x="359.83333333333337" y="585.3333333333334" as="sourcePoint"/>
            <mxPoint x="359.83333333333337" y="495.33333333333337" as="targetPoint"/>
          </mxGeometry>
        </mxCell>
        <mxCell id="2YWFpv4NdZ1Yad-ay4ea-37" value="" style="endArrow=classic;startArrow=classic;html=1;shadow=1;dashed=1;align=center;entryX=0.5;entryY=1;exitX=0.5;exitY=0;" parent="1" edge="1">
          <mxGeometry width="50" height="50" relative="1" as="geometry">
            <mxPoint x="464.33333333333337" y="585.3333333333334" as="sourcePoint"/>
            <mxPoint x="464.33333333333337" y="495.33333333333337" as="targetPoint"/>
          </mxGeometry>
        </mxCell>
        <mxCell id="2YWFpv4NdZ1Yad-ay4ea-38" value="" style="endArrow=classic;startArrow=classic;html=1;shadow=1;dashed=1;align=center;entryX=0.5;entryY=1;exitX=0.5;exitY=0;" parent="1" edge="1">
          <mxGeometry width="50" height="50" relative="1" as="geometry">
            <mxPoint x="564.8333333333335" y="585.3333333333334" as="sourcePoint"/>
            <mxPoint x="564.8333333333335" y="495.33333333333337" as="targetPoint"/>
          </mxGeometry>
        </mxCell>
        <mxCell id="2YWFpv4NdZ1Yad-ay4ea-39" value="" style="endArrow=classic;startArrow=classic;html=1;shadow=1;dashed=1;align=center;entryX=0.5;entryY=1;exitX=0.5;exitY=0;" parent="1" edge="1">
          <mxGeometry width="50" height="50" relative="1" as="geometry">
            <mxPoint x="669.3333333333335" y="585.3333333333334" as="sourcePoint"/>
            <mxPoint x="669.3333333333335" y="495.33333333333337" as="targetPoint"/>
          </mxGeometry>
        </mxCell>
        <mxCell id="2YWFpv4NdZ1Yad-ay4ea-40" value="&lt;font style=&quot;font-size: 15px&quot;&gt;&lt;b&gt;Kernel&lt;/b&gt;&lt;/font&gt;" style="text;html=1;resizable=0;points=[];autosize=1;align=left;verticalAlign=top;spacingTop=-4;" parent="1" vertex="1">
          <mxGeometry x="775" y="460.5" width="60" height="20" as="geometry"/>
        </mxCell>
        <mxCell id="2YWFpv4NdZ1Yad-ay4ea-41" value="&lt;font style=&quot;font-size: 15px&quot;&gt;&lt;b&gt;Application&lt;/b&gt;&lt;/font&gt;" style="text;html=1;resizable=0;points=[];autosize=1;align=left;verticalAlign=top;spacingTop=-4;" parent="1" vertex="1">
          <mxGeometry x="745" y="265.5" width="100" height="20" as="geometry"/>
        </mxCell>
        <mxCell id="2YWFpv4NdZ1Yad-ay4ea-42" value="Python Library" style="rounded=1;whiteSpace=wrap;html=1;fillColor=#ffe6cc;strokeColor=#d79b00;" parent="1" vertex="1">
          <mxGeometry x="449" y="301" width="120" height="35" as="geometry"/>
        </mxCell>
        <mxCell id="2YWFpv4NdZ1Yad-ay4ea-43" value="" style="rounded=1;whiteSpace=wrap;html=1;fillColor=#d5e8d4;strokeColor=#82b366;gradientColor=#ffffff;" parent="1" vertex="1">
          <mxGeometry x="265" y="70.5" width="430" height="120" as="geometry"/>
        </mxCell>
        <mxCell id="2YWFpv4NdZ1Yad-ay4ea-44" value="" style="endArrow=classic;startArrow=classic;html=1;entryX=0.5;entryY=1;" parent="1" source="2YWFpv4NdZ1Yad-ay4ea-2" target="2YWFpv4NdZ1Yad-ay4ea-3" edge="1">
          <mxGeometry width="50" height="50" relative="1" as="geometry">
            <mxPoint x="371" y="369.78932188134524" as="sourcePoint"/>
            <mxPoint x="371" y="360.5" as="targetPoint"/>
          </mxGeometry>
        </mxCell>
        <mxCell id="2YWFpv4NdZ1Yad-ay4ea-45" value="Network Manager" style="rounded=0;whiteSpace=wrap;html=1;fillColor=#d5e8d4;strokeColor=#82b366;gradientColor=#ffffff;" parent="1" vertex="1">
          <mxGeometry x="290" y="110.5" width="70" height="35" as="geometry"/>
        </mxCell>
        <mxCell id="2YWFpv4NdZ1Yad-ay4ea-46" value="MQTT Demo" style="rounded=0;whiteSpace=wrap;html=1;fillColor=#d5e8d4;strokeColor=#82b366;gradientColor=#ffffff;" parent="1" vertex="1">
          <mxGeometry x="382.5" y="110.5" width="70" height="35" as="geometry"/>
        </mxCell>
        <mxCell id="2YWFpv4NdZ1Yad-ay4ea-47" value="IEC61580&lt;br&gt;Demo&lt;br&gt;" style="rounded=0;whiteSpace=wrap;html=1;fillColor=#d5e8d4;strokeColor=#82b366;gradientColor=#ffffff;" parent="1" vertex="1">
          <mxGeometry x="480" y="110.5" width="70" height="35" as="geometry"/>
        </mxCell>
        <mxCell id="2YWFpv4NdZ1Yad-ay4ea-48" value="System info" style="rounded=0;whiteSpace=wrap;html=1;fillColor=#d5e8d4;strokeColor=#82b366;gradientColor=#ffffff;" parent="1" vertex="1">
          <mxGeometry x="100" y="110.5" width="85" height="35" as="geometry"/>
        </mxCell>
        <mxCell id="2YWFpv4NdZ1Yad-ay4ea-49" value="System&lt;br&gt;Info" style="rounded=0;whiteSpace=wrap;html=1;fillColor=#d5e8d4;strokeColor=#82b366;gradientColor=#ffffff;" parent="1" vertex="1">
          <mxGeometry x="577.5" y="110.5" width="70" height="35" as="geometry"/>
        </mxCell>
        <mxCell id="2YWFpv4NdZ1Yad-ay4ea-50" value="MQTT Client" style="rounded=0;whiteSpace=wrap;html=1;fillColor=#ffe6cc;strokeColor=#d79b00;" parent="1" vertex="1">
          <mxGeometry x="195" y="250.5" width="120" height="25" as="geometry"/>
        </mxCell>
        <mxCell id="2YWFpv4NdZ1Yad-ay4ea-51" value="IEC61580 Server" style="rounded=0;whiteSpace=wrap;html=1;fillColor=#ffe6cc;strokeColor=#d79b00;" parent="1" vertex="1">
          <mxGeometry x="332.5" y="250.5" width="120" height="25" as="geometry"/>
        </mxCell>
        <mxCell id="2YWFpv4NdZ1Yad-ay4ea-52" value="Dbus Dameon" style="rounded=0;whiteSpace=wrap;html=1;fillColor=#ffe6cc;strokeColor=#d79b00;" parent="1" vertex="1">
          <mxGeometry x="85" y="215.5" width="590" height="25" as="geometry"/>
        </mxCell>
        <mxCell id="2YWFpv4NdZ1Yad-ay4ea-53" value="Connman&amp;nbsp;" style="rounded=0;whiteSpace=wrap;html=1;fillColor=#ffe6cc;strokeColor=#d79b00;" parent="1" vertex="1">
          <mxGeometry x="480" y="250.5" width="120" height="25" as="geometry"/>
        </mxCell>
        <mxCell id="2YWFpv4NdZ1Yad-ay4ea-54" value="" style="endArrow=none;html=1;exitX=0;exitY=0.25;exitDx=0;exitDy=0;entryX=1;entryY=0.25;entryDx=0;entryDy=0;" parent="1" source="2YWFpv4NdZ1Yad-ay4ea-32" target="2YWFpv4NdZ1Yad-ay4ea-32" edge="1">
          <mxGeometry width="50" height="50" relative="1" as="geometry">
            <mxPoint x="115" y="120.5" as="sourcePoint"/>
            <mxPoint x="165" y="70.5" as="targetPoint"/>
          </mxGeometry>
        </mxCell>
        <mxCell id="2YWFpv4NdZ1Yad-ay4ea-55" value="&lt;div style=&quot;text-align: left ; font-size: 12px&quot;&gt;&lt;font style=&quot;font-size: 12px&quot;&gt;QT5(Core&amp;nbsp;Widgets...&lt;/font&gt;&lt;span&gt;)&lt;/span&gt;&lt;/div&gt;" style="rounded=1;whiteSpace=wrap;html=1;verticalAlign=top;align=center;fontSize=2;fillColor=#d5e8d4;strokeColor=#82b366;gradientColor=#ffffff;" parent="1" vertex="1">
          <mxGeometry x="55" y="150.5" width="180" height="30" as="geometry"/>
        </mxCell>
        <mxCell id="2YWFpv4NdZ1Yad-ay4ea-56" value="" style="endArrow=none;html=1;fontSize=2;exitX=0;exitY=0.25;exitDx=0;exitDy=0;entryX=1;entryY=0.25;entryDx=0;entryDy=0;" parent="1" source="2YWFpv4NdZ1Yad-ay4ea-43" target="2YWFpv4NdZ1Yad-ay4ea-43" edge="1">
          <mxGeometry width="50" height="50" relative="1" as="geometry">
            <mxPoint x="265" y="140.5" as="sourcePoint"/>
            <mxPoint x="315" y="90.5" as="targetPoint"/>
          </mxGeometry>
        </mxCell>
        <mxCell id="2YWFpv4NdZ1Yad-ay4ea-57" value="&lt;font style=&quot;font-size: 12px&quot;&gt;Python2(Flask、Flask-Appbuilder、Bootstrap、JS...)&lt;/font&gt;" style="rounded=1;whiteSpace=wrap;html=1;fontSize=2;align=center;fillColor=#d5e8d4;strokeColor=#82b366;gradientColor=#ffffff;" parent="1" vertex="1">
          <mxGeometry x="285" y="155.5" width="390" height="30" as="geometry"/>
        </mxCell>
        <mxCell id="2YWFpv4NdZ1Yad-ay4ea-58" value="WEB Demo" style="text;html=1;strokeColor=none;fillColor=none;align=center;verticalAlign=middle;whiteSpace=wrap;rounded=0;fontSize=9;fontStyle=1" parent="1" vertex="1">
          <mxGeometry x="405" y="70.5" width="88" height="30" as="geometry"/>
        </mxCell>
        <mxCell id="2YWFpv4NdZ1Yad-ay4ea-59" value="QT Demo" style="text;html=1;strokeColor=none;fillColor=none;align=center;verticalAlign=middle;whiteSpace=wrap;rounded=0;fontSize=8;fontStyle=1" parent="1" vertex="1">
          <mxGeometry x="100" y="75.5" width="80" height="20" as="geometry"/>
        </mxCell>
        <mxCell id="2YWFpv4NdZ1Yad-ay4ea-60" value="" style="endArrow=none;html=1;fontSize=9;exitX=0.004;exitY=0.128;exitDx=0;exitDy=0;exitPerimeter=0;entryX=0.999;entryY=0.121;entryDx=0;entryDy=0;entryPerimeter=0;" parent="1" source="2YWFpv4NdZ1Yad-ay4ea-3" target="2YWFpv4NdZ1Yad-ay4ea-3" edge="1">
          <mxGeometry width="50" height="50" relative="1" as="geometry">
            <mxPoint x="25" y="100.5" as="sourcePoint"/>
            <mxPoint x="75" y="50.5" as="targetPoint"/>
          </mxGeometry>
        </mxCell>
        <mxCell id="2YWFpv4NdZ1Yad-ay4ea-61" value="&lt;b style=&quot;font-size: 15px&quot;&gt;MEasy IOT&lt;/b&gt;" style="text;html=1;strokeColor=none;fillColor=none;align=center;verticalAlign=middle;whiteSpace=wrap;rounded=0;fontSize=15;" parent="1" vertex="1">
          <mxGeometry x="305" y="30.5" width="130" height="20" as="geometry"/>
        </mxCell>
      </root>
    </mxGraphModel>
  </diagram>
</mxfile>
